 <svg  version="1.0" xmlns="http://www.w3.org/2000/svg"  width="300.000000pt" height="150.000000pt" viewBox="0 0 300.000000 150.000000"  preserveAspectRatio="xMidYMid meet">  <g transform="translate(0.000000,150.000000) scale(0.100000,-0.100000)" fill="#ffffff" stroke="none"> <path d="M382 1217 c-27 -28 -44 -106 -35 -160 8 -52 58 -106 99 -108 16 -1 68 -1 115 0 47 1 98 -3 112 -8 l27 -11 0 -182 c0 -166 2 -186 20 -216 l21 -33 -26 -30 c-30 -36 -31 -47 -8 -93 15 -33 15 -37 0 -54 -20 -22 -21 -42 -6 -76 13 -29 63 -56 89 -49 51 14 81 96 47 130 -14 14 -14 19 3 50 22 41 12 82 -25 111 l-23 18 26 35 27 34 -3 264 c-4 292 -7 306 -65 341 -27 17 -51 20 -157 20 -107 0 -130 3 -158 20 -42 26 -54 25 -80 -3z m58 -32 l10 -25 149 0 c188 0 192 -2 202 -116 4 -44 8 -166 8 -271 1 -180 0 -194 -19 -213 -11 -11 -27 -20 -35 -20 -13 0 -15 29 -15 203 0 160 -3 207 -14 223 -13 17 -29 19 -148 22 -73 1 -143 5 -155 7 -29 7 -47 64 -40 126 10 82 38 114 57 64z m365 -735 c24 -26 13 -68 -20 -76 -33 -8 -55 11 -55 47 0 46 44 63 75 29z m-1 -136 c30 -30 9 -84 -33 -84 -25 0 -41 20 -41 50 0 47 42 66 74 34z"/> <path d="M915 1214 c-16 -17 -27 -48 -36 -95 -11 -61 -10 -74 4 -104 18 -38 48 -61 89 -69 39 -7 46 -12 53 -45 3 -17 25 -51 47 -76 49 -55 43 -65 -43 -65 -71 0 -90 -19 -120 -122 l-23 -78 24 -25 c19 -20 33 -25 72 -25 26 0 48 -3 48 -6 0 -3 -9 -17 -20 -31 -11 -14 -20 -38 -20 -53 0 -31 31 -76 59 -85 14 -4 18 -15 17 -45 -2 -84 86 -121 139 -58 21 25 25 38 20 65 -3 19 -2 33 4 33 5 0 23 12 40 26 37 31 42 78 11 117 -26 33 -25 37 9 37 39 0 76 45 90 110 20 93 17 103 -55 179 l-66 70 22 30 c13 20 36 34 61 41 47 13 67 49 76 137 5 50 4 54 -30 88 -28 28 -43 35 -73 35 -23 0 -49 8 -64 20 -36 28 -55 25 -88 -16 -29 -35 -30 -35 -58 -21 -16 8 -45 18 -64 22 -19 4 -44 14 -55 21 -28 20 -43 17 -70 -12z m63 -29 c10 -21 18 -25 57 -25 49 0 91 -29 81 -56 -8 -21 -9 -167 -1 -186 13 -34 37 -30 81 13 44 43 48 59 14 59 -27 0 -40 30 -39 92 1 94 38 159 59 104 9 -23 15 -26 61 -26 86 0 102 -29 78 -140 -12 -55 -12 -55 -40 -39 -17 9 -26 4 -59 -32 -75 -82 -75 -82 8 -158 80 -73 83 -82 58 -186 l-11 -50 -201 -3 -201 -2 25 85 26 85 112 0 c72 0 115 4 120 11 4 7 -23 40 -64 79 -69 65 -78 82 -84 145 -3 29 -5 30 -61 33 -74 4 -93 27 -83 105 12 106 40 146 64 92z m202 -694 c-16 -31 -28 -34 -55 -13 -30 24 -23 32 27 32 35 0 38 -2 28 -19z m-74 -46 c15 -23 15 -27 0 -50 -19 -29 -42 -32 -68 -8 -22 20 -23 32 -2 61 20 29 50 28 70 -3z m149 5 c24 -26 13 -68 -20 -76 -33 -8 -55 11 -55 47 0 46 44 63 75 29z m-77 -132 c20 -20 15 -66 -8 -78 -45 -24 -85 22 -60 69 12 23 49 28 68 9z"/> <path d="M1482 1217 c-49 -52 -57 -162 -16 -223 26 -38 26 -39 11 -84 -12 -32 -17 -92 -19 -209 -2 -162 -2 -163 22 -183 29 -24 64 -17 103 20 40 38 47 79 41 231 -5 106 -3 140 7 154 15 19 101 34 141 24 l23 -6 -3 -203 c-4 -194 -3 -204 16 -222 27 -24 70 -14 110 25 42 41 46 72 32 242 -11 131 -11 150 5 196 23 70 16 164 -14 195 -20 19 -35 21 -195 26 -147 4 -177 8 -193 23 -26 23 -45 22 -71 -6z m58 -32 l9 -25 188 -2 188 -3 3 -79 c2 -65 0 -80 -15 -91 -16 -12 -16 -24 -5 -176 7 -90 12 -176 12 -190 0 -32 -44 -79 -74 -79 -21 0 -21 3 -18 177 3 163 5 182 26 226 l24 49 -125 -4 c-124 -3 -125 -3 -150 -33 l-26 -30 6 -151 c4 -95 3 -163 -4 -182 -10 -30 -44 -52 -81 -52 -16 0 -18 4 -12 18 4 9 11 89 14 177 5 170 12 195 64 237 21 17 21 18 -16 18 -56 0 -72 31 -66 120 7 91 37 131 58 75z"/> <path d="M2062 1218 c-29 -32 -42 -71 -42 -131 0 -64 26 -111 75 -134 l35 -17 -30 -14 c-58 -28 -68 -60 -72 -228 -3 -138 -1 -154 16 -173 29 -32 63 -26 107 18 l39 39 0 133 c0 74 3 143 6 154 3 14 -3 29 -21 47 -22 23 -23 26 -8 30 41 10 191 9 198 -2 3 -6 8 -97 10 -203 1 -105 6 -200 10 -209 18 -43 100 -22 135 34 25 41 26 105 4 259 -14 101 -14 115 0 144 24 49 22 176 -3 206 -19 23 -25 24 -194 29 -148 4 -178 8 -194 23 -26 23 -45 22 -71 -5z m58 -33 l10 -25 185 0 c102 0 185 -3 186 -7 0 -5 1 -42 2 -83 2 -63 -1 -78 -17 -91 -19 -16 -19 -18 -2 -155 17 -127 20 -165 17 -217 -2 -27 -47 -67 -76 -67 -23 0 -25 3 -18 23 4 12 7 95 5 185 -3 149 -2 167 17 203 l21 39 -180 0 -180 0 -16 25 c-13 20 -16 41 -12 95 7 92 37 131 58 75z m40 -306 c-3 -8 -6 -77 -8 -154 -3 -126 -5 -142 -24 -162 -27 -29 -85 -33 -72 -5 5 9 11 80 14 158 5 148 12 169 53 177 31 6 43 2 37 -14z"/> <path d="M1556 485 c-14 -13 -26 -33 -26 -43 0 -27 35 -69 65 -76 22 -6 25 -11 25 -55 0 -82 58 -124 112 -81 22 17 28 30 30 73 3 48 6 53 36 68 19 8 38 22 43 30 16 25 10 68 -13 89 -19 18 -35 20 -133 20 -105 0 -114 -2 -139 -25z m264 -45 c0 -29 -1 -30 -51 -30 l-52 0 7 -80 6 -80 -36 0 -37 0 5 80 5 80 -49 0 c-47 0 -48 1 -48 30 l0 30 125 0 125 0 0 -30z"/> <path d="M2154 498 c-66 -32 -50 -108 29 -132 13 -4 17 -16 17 -51 0 -38 5 -52 29 -76 37 -37 55 -37 92 0 23 24 29 38 29 74 0 42 2 47 38 64 31 15 37 24 40 53 2 25 -3 42 -18 58 -19 20 -29 22 -128 21 -59 0 -117 -5 -128 -11z m246 -58 c0 -29 -1 -30 -51 -30 l-51 0 7 -80 7 -80 -37 0 -38 0 6 80 6 80 -49 0 c-49 0 -50 1 -50 30 l0 30 125 0 125 0 0 -30z"/> </g> </svg> 